<mxfile host="app.diagrams.net" modified="2023-02-16T12:44:41.722Z" agent="5.0 (Macintosh; Intel Mac OS X 10_15_7) AppleWebKit/537.36 (KHTML, like Gecko) Chrome/108.0.0.0 Safari/537.36" etag="IGeucIL1F3kp4O-P76WG" version="20.8.20" type="github">
  <diagram name="Page-1" id="G8Wqikg-6pwKdIPzxkzI">
    <mxGraphModel dx="2291" dy="1409" grid="1" gridSize="10" guides="1" tooltips="1" connect="1" arrows="1" fold="1" page="1" pageScale="1" pageWidth="1169" pageHeight="827" math="0" shadow="0">
      <root>
        <mxCell id="0" />
        <mxCell id="1" parent="0" />
        <mxCell id="COP01vaBlytFx2KbF6yr-29" value="" style="shape=image;imageAspect=0;aspect=fixed;verticalLabelPosition=bottom;verticalAlign=top;clipPath=inset(18.89% 29% 25.19% 26.67%);image=https://habrastorage.org/r/w1560/files/95d/da6/4a8/95dda64a80974b8f86c04072bfb2b424.png;" vertex="1" parent="1">
          <mxGeometry x="904.5699999999999" width="255.43" height="290" as="geometry" />
        </mxCell>
        <mxCell id="COP01vaBlytFx2KbF6yr-44" value="Консистентность" style="swimlane;whiteSpace=wrap;html=1;fontSize=12;" vertex="1" parent="1">
          <mxGeometry x="540" y="290" width="630" height="300" as="geometry" />
        </mxCell>
        <mxCell id="COP01vaBlytFx2KbF6yr-47" value="&lt;p style=&quot;margin: 18pt 0cm 12pt; line-height: 0%; break-after: auto; font-family: Arial, sans-serif; color: rgb(67, 67, 67); font-weight: normal; text-align: start; font-size: 14px;&quot;&gt;&lt;br&gt;&lt;/p&gt;" style="text;html=1;align=center;verticalAlign=middle;resizable=0;points=[];autosize=1;strokeColor=none;fillColor=none;fontSize=12;" vertex="1" parent="COP01vaBlytFx2KbF6yr-44">
          <mxGeometry x="1170" y="70" width="20" height="50" as="geometry" />
        </mxCell>
        <mxCell id="COP01vaBlytFx2KbF6yr-46" value="&lt;p style=&quot;margin: 0cm 0cm 0.0001pt 35.45pt; line-height: 16.8667px; font-size: 11pt; font-family: Arial, sans-serif; text-align: start; text-indent: -21.25pt;&quot; class=&quot;MsoNormal&quot;&gt;&lt;span style=&quot;font-size: 12pt; line-height: 18.4px; color: rgb(36, 41, 46);&quot;&gt;Каждое чтение возвращает самые свежие данные или ошибку.&lt;/span&gt;&lt;/p&gt;&lt;p style=&quot;margin: 0cm 0cm 0.0001pt 35.45pt; line-height: 16.8667px; font-size: 11pt; font-family: Arial, sans-serif; text-align: start; text-indent: -21.25pt;&quot; class=&quot;MsoNormal&quot;&gt;&lt;span style=&quot;font-size: 12pt; line-height: 18.4px; color: rgb(36, 41, 46);&quot;&gt;&lt;br&gt;&lt;/span&gt;&lt;/p&gt;" style="text;html=1;align=center;verticalAlign=middle;resizable=0;points=[];autosize=1;strokeColor=none;fillColor=none;fontSize=12;" vertex="1" parent="COP01vaBlytFx2KbF6yr-44">
          <mxGeometry x="70" y="30" width="510" height="50" as="geometry" />
        </mxCell>
        <mxCell id="COP01vaBlytFx2KbF6yr-49" value="&lt;p&gt;&lt;/p&gt;&lt;div style=&quot;text-align: left;&quot;&gt;&lt;span style=&quot;background-color: initial;&quot;&gt;&lt;b&gt;Частичная консистенция&lt;/b&gt;&lt;/span&gt;&lt;/div&gt;&lt;div style=&quot;text-align: left;&quot;&gt;&lt;span style=&quot;background-color: initial;&quot;&gt;После записи, чтение вполне себе вернет последнии данные, но,&amp;nbsp;&lt;/span&gt;&lt;/div&gt;&lt;div style=&quot;text-align: left;&quot;&gt;&lt;span style=&quot;background-color: initial;&quot;&gt;возможно не сразу (обычно в течение нескольких миллисекунд).&amp;nbsp;&lt;/span&gt;&lt;/div&gt;&lt;div style=&quot;text-align: left;&quot;&gt;&lt;span style=&quot;background-color: initial;&quot;&gt;Данные реплицируются асинхронно.&lt;/span&gt;&lt;/div&gt;&lt;div style=&quot;text-align: left;&quot;&gt;&lt;span style=&quot;background-color: initial;&quot;&gt;Этот подход часто используется в системах DNS и Email.&amp;nbsp;&lt;/span&gt;&lt;/div&gt;&lt;div style=&quot;text-align: left;&quot;&gt;&lt;span style=&quot;background-color: initial;&quot;&gt;Частичная консистенция отлично подходит для системы с высокой доступностью.&lt;/span&gt;&lt;/div&gt;&lt;p&gt;&lt;/p&gt;&lt;div&gt;&lt;br&gt;&lt;/div&gt;" style="text;html=1;align=center;verticalAlign=middle;resizable=0;points=[];autosize=1;strokeColor=none;fillColor=none;fontSize=14;" vertex="1" parent="COP01vaBlytFx2KbF6yr-44">
          <mxGeometry x="10" y="140" width="570" height="160" as="geometry" />
        </mxCell>
        <mxCell id="COP01vaBlytFx2KbF6yr-50" value="&lt;div&gt;&lt;br&gt;&lt;/div&gt;&lt;div&gt;&lt;b&gt;Сильная консистенция&lt;/b&gt;&lt;/div&gt;&lt;div&gt;&lt;span style=&quot;background-color: initial;&quot;&gt;RDBMSes. с&lt;/span&gt;&lt;span style=&quot;background-color: initial;&quot;&gt;&amp;nbsp;транзакции.&lt;/span&gt;&lt;/div&gt;&lt;div&gt;&lt;br&gt;&lt;/div&gt;" style="text;html=1;align=left;verticalAlign=middle;resizable=0;points=[];autosize=1;strokeColor=none;fillColor=none;fontSize=14;" vertex="1" parent="COP01vaBlytFx2KbF6yr-44">
          <mxGeometry x="19" y="240" width="190" height="80" as="geometry" />
        </mxCell>
        <mxCell id="COP01vaBlytFx2KbF6yr-48" value="&lt;div&gt;&lt;b&gt;Слабая консистенция&lt;/b&gt;&lt;/div&gt;&lt;div&gt;После записи, читатель может увидеть записанное, а может и не увидеть.&amp;nbsp;&lt;/div&gt;&lt;div&gt;Здесь применяется метод best effort (A best effort approach is taken)&lt;/div&gt;&lt;div&gt;&lt;span style=&quot;background-color: initial;&quot;&gt;я отлично подходит для использования в real-time,&amp;nbsp;&lt;/span&gt;&lt;br&gt;&lt;/div&gt;&lt;div&gt;например VoIP, видео чатах и мультиплеерных играх.&amp;nbsp;&lt;span style=&quot;background-color: initial;&quot;&gt;&amp;nbsp;по телефону и потеряли связь&amp;nbsp;&lt;/span&gt;&lt;/div&gt;&lt;div&gt;&lt;span style=&quot;background-color: initial;&quot;&gt;на некоторое время,&amp;nbsp;&lt;/span&gt;&lt;span style=&quot;background-color: initial;&quot;&gt;то вы не услышите то, что было сказано в этот момент времени.&amp;nbsp;&amp;nbsp;&lt;/span&gt;&lt;/div&gt;&lt;div&gt;&lt;br&gt;&lt;/div&gt;" style="text;html=1;align=left;verticalAlign=middle;resizable=0;points=[];autosize=1;strokeColor=none;fillColor=none;fontSize=14;" vertex="1" parent="COP01vaBlytFx2KbF6yr-44">
          <mxGeometry x="19" y="50" width="600" height="130" as="geometry" />
        </mxCell>
        <mxCell id="COP01vaBlytFx2KbF6yr-52" value="Доступность" style="swimlane;whiteSpace=wrap;html=1;fontSize=14;" vertex="1" parent="1">
          <mxGeometry x="450" width="450" height="290" as="geometry" />
        </mxCell>
        <mxCell id="COP01vaBlytFx2KbF6yr-53" value="&lt;h3 style=&quot;margin: 18pt 0cm 12pt -1.5pt; line-height: normal; break-after: auto; font-size: 14pt; font-family: Arial, sans-serif; color: rgb(67, 67, 67); font-weight: normal; text-align: start;&quot;&gt;&lt;b&gt;Отказоустойчивость (&lt;/b&gt;&lt;b&gt;&lt;span style=&quot;font-size: 16.5pt; color: rgb(36, 41, 46);&quot; lang=&quot;EN-GB&quot;&gt;Fail&lt;/span&gt;&lt;/b&gt;&lt;b&gt;&lt;span style=&quot;font-size: 16.5pt; color: rgb(36, 41, 46);&quot;&gt;-&lt;/span&gt;&lt;/b&gt;&lt;b&gt;&lt;span style=&quot;font-size: 16.5pt; color: rgb(36, 41, 46);&quot; lang=&quot;EN-GB&quot;&gt;over&lt;/span&gt;&lt;/b&gt;&lt;b&gt;&lt;span style=&quot;font-size: 16.5pt; color: rgb(36, 41, 46);&quot;&gt;)&lt;/span&gt;&lt;/b&gt;&lt;/h3&gt;" style="text;html=1;align=center;verticalAlign=middle;resizable=0;points=[];autosize=1;strokeColor=none;fillColor=none;fontSize=14;" vertex="1" parent="COP01vaBlytFx2KbF6yr-52">
          <mxGeometry width="320" height="80" as="geometry" />
        </mxCell>
        <mxCell id="COP01vaBlytFx2KbF6yr-55" value="&lt;h4 style=&quot;margin: 18pt 0cm 12pt -1.5pt; line-height: normal; break-after: auto; font-size: 12pt; font-family: Arial, sans-serif; color: rgb(102, 102, 102); font-weight: normal; text-align: start;&quot;&gt;&lt;b&gt;Активный-активный&lt;/b&gt;&lt;/h4&gt;" style="text;html=1;align=center;verticalAlign=middle;resizable=0;points=[];autosize=1;strokeColor=none;fillColor=none;fontSize=14;" vertex="1" parent="COP01vaBlytFx2KbF6yr-52">
          <mxGeometry y="220" width="180" height="70" as="geometry" />
        </mxCell>
        <mxCell id="COP01vaBlytFx2KbF6yr-54" value="&lt;h4 style=&quot;margin: 18pt 0cm 12pt -1.5pt; line-height: 80%; break-after: auto; font-size: 12pt; font-family: Arial, sans-serif; color: rgb(102, 102, 102); font-weight: normal; text-align: start;&quot;&gt;&lt;b&gt;Активный-пассивный (&lt;/b&gt;&lt;b&gt;&lt;span style=&quot;color: rgb(36, 41, 46);&quot; lang=&quot;EN-GB&quot;&gt;Active&lt;/span&gt;&lt;/b&gt;&lt;b&gt;&lt;span style=&quot;color: rgb(36, 41, 46);&quot;&gt;-&lt;/span&gt;&lt;/b&gt;&lt;b&gt;&lt;span style=&quot;color: rgb(36, 41, 46);&quot; lang=&quot;EN-GB&quot;&gt;passive&lt;/span&gt;&lt;/b&gt;&lt;b&gt;&lt;span style=&quot;color: rgb(36, 41, 46);&quot;&gt;)&lt;/span&gt;&lt;/b&gt;&lt;/h4&gt;&lt;p style=&quot;margin: 0cm 0cm 0.0001pt; line-height: 80%; font-size: 11pt; font-family: Arial, sans-serif; text-align: start;&quot; class=&quot;MsoNormal&quot;&gt;&lt;span style=&quot;font-size: 12pt; line-height: 18.4px;&quot;&gt;С таким подходом происходит отправка&amp;nbsp;&lt;/span&gt;&lt;/p&gt;&lt;p style=&quot;margin: 0cm 0cm 0.0001pt; line-height: 80%; font-size: 11pt; font-family: Arial, sans-serif; text-align: start;&quot; class=&quot;MsoNormal&quot;&gt;&lt;span style=&quot;font-size: 12pt; line-height: 18.4px;&quot;&gt;пульса (&lt;/span&gt;&lt;span style=&quot;font-size: 12pt; line-height: 18.4px; color: rgb(36, 41, 46);&quot; lang=&quot;EN-GB&quot;&gt;heartbeats&lt;/span&gt;&lt;span style=&quot;font-size: 12pt; line-height: 18.4px;&quot;&gt;)&amp;nbsp;&lt;/span&gt;&lt;span style=&quot;background-color: initial; font-size: 12pt; line-height: 18.4px;&quot;&gt;между серверами.&amp;nbsp;&lt;/span&gt;&lt;/p&gt;&lt;p style=&quot;margin: 0cm 0cm 0.0001pt; line-height: 80%; font-size: 11pt; font-family: Arial, sans-serif; text-align: start;&quot; class=&quot;MsoNormal&quot;&gt;&lt;span style=&quot;background-color: initial; font-size: 12pt; line-height: 18.4px;&quot;&gt;Если пульс прекращается,&amp;nbsp; сервер берет&amp;nbsp;&lt;/span&gt;&lt;/p&gt;&lt;p style=&quot;margin: 0cm 0cm 0.0001pt; line-height: 80%; font-size: 11pt; font-family: Arial, sans-serif; text-align: start;&quot; class=&quot;MsoNormal&quot;&gt;&lt;span style=&quot;background-color: initial; font-size: 12pt; line-height: 18.4px;&quot;&gt;на себя обязанности&amp;nbsp;&lt;/span&gt;&lt;span style=&quot;background-color: initial; font-size: 12pt; line-height: 18.4px; color: rgb(36, 41, 46);&quot;&gt;Время простоя (&lt;/span&gt;&lt;span style=&quot;background-color: initial; font-size: 12pt; line-height: 18.4px; color: rgb(36, 41, 46);&quot; lang=&quot;EN-GB&quot;&gt;downtime&lt;/span&gt;&lt;span style=&quot;background-color: initial; font-size: 12pt; line-height: 18.4px; color: rgb(36, 41, 46);&quot;&gt;) зависит&amp;nbsp;&lt;/span&gt;&lt;/p&gt;&lt;p style=&quot;margin: 0cm 0cm 0.0001pt; line-height: 80%; font-size: 11pt; font-family: Arial, sans-serif; text-align: start;&quot; class=&quot;MsoNormal&quot;&gt;&lt;span style=&quot;background-color: initial; font-size: 12pt; line-height: 18.4px; color: rgb(36, 41, 46);&quot;&gt;от того, как быстро сервер готов начать работу.&amp;nbsp;&lt;/span&gt;&lt;/p&gt;&lt;p style=&quot;margin: 0cm 0cm 12pt; line-height: 85%; font-size: 11pt; font-family: Arial, sans-serif; text-align: start;&quot; class=&quot;MsoNormal&quot;&gt;&lt;span style=&quot;font-size: 12pt; line-height: 18.4px; color: rgb(36, 41, 46);&quot;&gt;Пассивный сервер может ожидать в горячем (&lt;/span&gt;&lt;span style=&quot;font-size: 12pt; line-height: 18.4px; color: rgb(36, 41, 46);&quot; lang=&quot;EN-GB&quot;&gt;hot&lt;/span&gt;&lt;span style=&quot;font-size: 12pt; line-height: 18.4px; color: rgb(36, 41, 46);&quot;&gt;)&amp;nbsp;&lt;/span&gt;&lt;/p&gt;&lt;p style=&quot;margin: 0cm 0cm 12pt; line-height: 85%; font-size: 11pt; font-family: Arial, sans-serif; text-align: start;&quot; class=&quot;MsoNormal&quot;&gt;&lt;span style=&quot;background-color: initial; font-size: 12pt; line-height: 18.4px; color: rgb(36, 41, 46);&quot;&gt;или холодном (&lt;/span&gt;&lt;span style=&quot;background-color: initial; font-size: 12pt; line-height: 18.4px; color: rgb(36, 41, 46);&quot; lang=&quot;EN-GB&quot;&gt;cold&lt;/span&gt;&lt;span style=&quot;background-color: initial; font-size: 12pt; line-height: 18.4px; color: rgb(36, 41, 46);&quot;&gt;) состоянии.&lt;/span&gt;&lt;/p&gt;" style="text;html=1;align=center;verticalAlign=middle;resizable=0;points=[];autosize=1;strokeColor=none;fillColor=none;fontSize=14;" vertex="1" parent="COP01vaBlytFx2KbF6yr-52">
          <mxGeometry x="-150" width="440" height="230" as="geometry" />
        </mxCell>
        <mxCell id="COP01vaBlytFx2KbF6yr-56" value="" style="edgeStyle=orthogonalEdgeStyle;rounded=0;orthogonalLoop=1;jettySize=auto;html=1;fontSize=14;" edge="1" parent="1" source="COP01vaBlytFx2KbF6yr-54" target="COP01vaBlytFx2KbF6yr-29">
          <mxGeometry relative="1" as="geometry" />
        </mxCell>
        <mxCell id="COP01vaBlytFx2KbF6yr-58" value="Устойчивость к разделению&lt;span style=&quot;font-size: medium; font-weight: 400; text-align: start;&quot;&gt;&lt;/span&gt;" style="swimlane;whiteSpace=wrap;html=1;fontSize=12;" vertex="1" parent="1">
          <mxGeometry x="540" y="590" width="620" height="220" as="geometry" />
        </mxCell>
        <mxCell id="COP01vaBlytFx2KbF6yr-59" value="&lt;p style=&quot;margin: 18pt 0cm 12pt; line-height: 0%; break-after: auto; font-family: Arial, sans-serif; color: rgb(67, 67, 67); font-weight: normal; text-align: start; font-size: 14px;&quot;&gt;&lt;br&gt;&lt;/p&gt;" style="text;html=1;align=center;verticalAlign=middle;resizable=0;points=[];autosize=1;strokeColor=none;fillColor=none;fontSize=12;" vertex="1" parent="COP01vaBlytFx2KbF6yr-58">
          <mxGeometry x="1170" y="70" width="20" height="50" as="geometry" />
        </mxCell>
        <mxCell id="COP01vaBlytFx2KbF6yr-64" value="&lt;p style=&quot;margin: 0cm 0cm 12pt 35.45pt; line-height: 16.8667px; font-size: 11pt; font-family: Arial, sans-serif; text-indent: -21.25pt;&quot; class=&quot;MsoNormal&quot;&gt;&lt;span style=&quot;font-size: 12pt; line-height: 18.4px; color: rgb(36, 41, 46);&quot;&gt;Система должна функционировать несмотря на потери ресурсов,&amp;nbsp;&lt;/span&gt;&lt;/p&gt;&lt;p style=&quot;margin: 0cm 0cm 12pt 35.45pt; line-height: 16.8667px; font-size: 11pt; font-family: Arial, sans-serif; text-indent: -21.25pt;&quot; class=&quot;MsoNormal&quot;&gt;&lt;span style=&quot;text-indent: -21.25pt; background-color: initial; font-size: 12pt; line-height: 18.4px; color: rgb(36, 41, 46);&quot;&gt;узлов(&lt;/span&gt;&lt;span style=&quot;text-indent: -21.25pt; background-color: initial; font-size: 12pt; line-height: 18.4px; color: rgb(36, 41, 46);&quot; lang=&quot;EN-GB&quot;&gt;node&lt;/span&gt;&lt;span style=&quot;text-indent: -21.25pt; background-color: initial; font-size: 12pt; line-height: 18.4px; color: rgb(36, 41, 46);&quot;&gt;) или каких либо других ошибок коммуникации между сервисами.&lt;/span&gt;&lt;/p&gt;&lt;p style=&quot;margin: 0cm 0cm 12pt; line-height: 16.8667px; font-size: 11pt; font-family: Arial, sans-serif;&quot; class=&quot;MsoNormal&quot;&gt;&lt;i&gt;&lt;span style=&quot;font-size: 12pt; line-height: 18.4px; color: rgb(36, 41, 46);&quot;&gt;Сеть не является надежной, соответственно, вам необходимо поддерживать&amp;nbsp;&lt;/span&gt;&lt;/i&gt;&lt;/p&gt;&lt;p style=&quot;margin: 0cm 0cm 12pt; line-height: 16.8667px; font-size: 11pt; font-family: Arial, sans-serif;&quot; class=&quot;MsoNormal&quot;&gt;&lt;i&gt;&lt;span style=&quot;font-size: 12pt; line-height: 18.4px; color: rgb(36, 41, 46);&quot;&gt;устойчивость к разделению. Следует делать компромиссы между к&lt;/span&gt;&lt;/i&gt;&lt;/p&gt;&lt;p style=&quot;margin: 0cm 0cm 12pt; line-height: 16.8667px; font-size: 11pt; font-family: Arial, sans-serif;&quot; class=&quot;MsoNormal&quot;&gt;&lt;i&gt;&lt;span style=&quot;font-size: 12pt; line-height: 18.4px; color: rgb(36, 41, 46);&quot;&gt;онсистентностью данных и доступностью данных.&lt;/span&gt;&lt;/i&gt;&lt;/p&gt;" style="text;html=1;align=left;verticalAlign=middle;resizable=0;points=[];autosize=1;strokeColor=none;fillColor=none;fontSize=14;" vertex="1" parent="COP01vaBlytFx2KbF6yr-58">
          <mxGeometry x="20" y="20" width="640" height="190" as="geometry" />
        </mxCell>
        <mxCell id="COP01vaBlytFx2KbF6yr-66" value="&lt;div style=&quot;font-size: medium; font-weight: 400; text-align: start; border-top: none; border-right: none; border-left: none; border-image: initial; border-bottom: 1pt solid rgb(234, 236, 239); padding: 0cm 0cm 5pt;&quot;&gt;&lt;h2 style=&quot;margin: 18pt 0cm 12pt; line-height: 26.6667px; break-after: auto; font-size: 16pt; font-family: Arial, sans-serif; font-weight: normal; border: none; padding: 0cm;&quot;&gt;&lt;b&gt;Load balancer&lt;/b&gt;&lt;/h2&gt;&lt;/div&gt;" style="swimlane;whiteSpace=wrap;html=1;fontSize=14;" vertex="1" parent="1">
          <mxGeometry x="-110" y="10" width="300" height="160" as="geometry" />
        </mxCell>
        <mxCell id="COP01vaBlytFx2KbF6yr-67" value="&lt;p style=&quot;margin: 0cm 0cm 0.0001pt 36pt; line-height: 16.8667px; font-size: 11pt; font-family: Arial, sans-serif; text-align: start; text-indent: -18pt;&quot; class=&quot;MsoNormal&quot;&gt;●&amp;nbsp; &amp;nbsp;&lt;span style=&quot;font-size: 12pt; line-height: 18.4px; color: rgb(36, 41, 46);&quot; lang=&quot;EN-GB&quot;&gt;&lt;/span&gt;&lt;span style=&quot;font-size: 12pt; line-height: 18.4px; color: rgb(36, 41, 46);&quot; lang=&quot;EN-GB&quot;&gt;Случайно&lt;/span&gt;&lt;span lang=&quot;EN-GB&quot;&gt;&lt;/span&gt;&lt;/p&gt;&lt;p style=&quot;margin: 0cm 0cm 0.0001pt 36pt; line-height: 16.8667px; font-size: 11pt; font-family: Arial, sans-serif; text-align: start; text-indent: -18pt;&quot; class=&quot;MsoNormal&quot;&gt;&lt;span style=&quot;font-size: 12pt; line-height: 18.4px; color: rgb(36, 41, 46);&quot; lang=&quot;EN-GB&quot;&gt;●&lt;span style=&quot;font-variant-numeric: normal; font-variant-east-asian: normal; font-stretch: normal; font-size: 7pt; line-height: normal; font-family: &amp;quot;Times New Roman&amp;quot;;&quot;&gt;&amp;nbsp;&amp;nbsp;&amp;nbsp;&amp;nbsp;&amp;nbsp; &lt;/span&gt;&lt;/span&gt;&lt;span style=&quot;font-size: 12pt; line-height: 18.4px; color: rgb(36, 41, 46);&quot; lang=&quot;EN-GB&quot;&gt;Наименее загруженный&lt;/span&gt;&lt;span lang=&quot;EN-GB&quot;&gt;&lt;/span&gt;&lt;/p&gt;&lt;p style=&quot;margin: 0cm 0cm 0.0001pt 36pt; line-height: 16.8667px; font-size: 11pt; font-family: Arial, sans-serif; text-align: start; text-indent: -18pt;&quot; class=&quot;MsoNormal&quot;&gt;&lt;span style=&quot;font-size: 12pt; line-height: 18.4px; color: rgb(36, 41, 46);&quot; lang=&quot;EN-GB&quot;&gt;●&lt;span style=&quot;font-variant-numeric: normal; font-variant-east-asian: normal; font-stretch: normal; font-size: 7pt; line-height: normal; font-family: &amp;quot;Times New Roman&amp;quot;;&quot;&gt;&amp;nbsp;&amp;nbsp;&amp;nbsp;&amp;nbsp;&amp;nbsp; &lt;/span&gt;&lt;/span&gt;&lt;span style=&quot;font-size: 12pt; line-height: 18.4px; color: rgb(36, 41, 46);&quot; lang=&quot;EN-GB&quot;&gt;Сессии/куки (7)&lt;/span&gt;&lt;span lang=&quot;EN-GB&quot;&gt;&lt;/span&gt;&lt;/p&gt;&lt;p style=&quot;margin: 0cm 0cm 0.0001pt 36pt; line-height: 16.8667px; font-size: 11pt; font-family: Arial, sans-serif; text-align: start; text-indent: -18pt;&quot; class=&quot;MsoNormal&quot;&gt;&lt;span style=&quot;font-size: 12pt; line-height: 18.4px; color: rgb(36, 41, 46);&quot; lang=&quot;EN-GB&quot;&gt;●&lt;span style=&quot;font-variant-numeric: normal; font-variant-east-asian: normal; font-stretch: normal; font-size: 7pt; line-height: normal; font-family: &amp;quot;Times New Roman&amp;quot;;&quot;&gt;&amp;nbsp;&amp;nbsp;&amp;nbsp;&amp;nbsp;&amp;nbsp; &lt;/span&gt;&lt;/span&gt;&lt;span lang=&quot;EN-GB&quot;&gt;&lt;span style=&quot;font-size: 12pt; line-height: 18.4px; color: rgb(3, 102, 214);&quot;&gt;Round robin&lt;/span&gt;&lt;a href=&quot;http://g33kinfo.com/info/archives/2657&quot;&gt;&lt;span style=&quot;text-decoration-line: none;&quot;&gt;&lt;/span&gt;&lt;/a&gt;(по кругу бывает с весами)&lt;/span&gt;&lt;/p&gt;&lt;p style=&quot;margin: 0cm 0cm 0.0001pt 36pt; line-height: 16.8667px; font-size: 11pt; font-family: Arial, sans-serif; text-align: start; text-indent: -18pt;&quot; class=&quot;MsoNormal&quot;&gt;&lt;span style=&quot;font-size: 12pt; line-height: 18.4px; color: rgb(36, 41, 46);&quot; lang=&quot;EN-GB&quot;&gt;●&lt;span style=&quot;font-variant-numeric: normal; font-variant-east-asian: normal; font-stretch: normal; font-size: 7pt; line-height: normal; font-family: &amp;quot;Times New Roman&amp;quot;;&quot;&gt;&amp;nbsp;&amp;nbsp;&amp;nbsp;&amp;nbsp;&amp;nbsp; &lt;/span&gt;&lt;/span&gt;&lt;span lang=&quot;EN-GB&quot;&gt;По слою 4 модели OSI (HAProxy, IPVS)&lt;a href=&quot;https://github.com/donnemartin/system-design-primer#layer-4-load-balancing&quot;&gt;&lt;span style=&quot;text-decoration-line: none;&quot;&gt;&lt;/span&gt;&lt;/a&gt;&lt;/span&gt;&lt;/p&gt;&lt;p style=&quot;margin: 0cm 0cm 12pt 36pt; line-height: 16.8667px; font-size: 11pt; font-family: Arial, sans-serif; text-align: start; text-indent: -18pt;&quot; class=&quot;MsoNormal&quot;&gt;&lt;span style=&quot;font-size: 12pt; line-height: 18.4px; color: rgb(36, 41, 46);&quot; lang=&quot;EN-GB&quot;&gt;●&lt;span style=&quot;font-variant-numeric: normal; font-variant-east-asian: normal; font-stretch: normal; font-size: 7pt; line-height: normal; font-family: &amp;quot;Times New Roman&amp;quot;;&quot;&gt;&amp;nbsp;&amp;nbsp;&amp;nbsp;&amp;nbsp;&amp;nbsp; &lt;/span&gt;&lt;/span&gt;&lt;span lang=&quot;EN-GB&quot;&gt;По слою 7 модели OSI (HAProxy)&lt;/span&gt;&lt;/p&gt;" style="text;html=1;align=center;verticalAlign=middle;resizable=0;points=[];autosize=1;strokeColor=none;fillColor=none;fontSize=14;" vertex="1" parent="1">
          <mxGeometry x="-140" y="40" width="340" height="140" as="geometry" />
        </mxCell>
        <mxCell id="COP01vaBlytFx2KbF6yr-68" value="Vs ReverseProxy" style="swimlane;whiteSpace=wrap;html=1;fontSize=14;" vertex="1" parent="1">
          <mxGeometry x="-110" y="170" width="300" height="30" as="geometry" />
        </mxCell>
        <mxCell id="COP01vaBlytFx2KbF6yr-69" value="&lt;b style=&quot;font-size: medium; text-align: start;&quot;&gt;Слой/уровень приложения&lt;/b&gt;&lt;span style=&quot;font-size: medium; font-weight: 400; text-align: start;&quot;&gt;&lt;/span&gt;" style="swimlane;whiteSpace=wrap;html=1;fontSize=14;" vertex="1" parent="1">
          <mxGeometry x="-120" y="230" width="390" height="301.5" as="geometry" />
        </mxCell>
        <mxCell id="COP01vaBlytFx2KbF6yr-70" value="&lt;p style=&quot;margin: 0cm 0cm 12pt; line-height: 0%; font-size: 11pt; font-family: Arial, sans-serif; text-align: start;&quot; class=&quot;MsoNormal&quot;&gt;Разделение веб уровня и приложения&amp;nbsp;&lt;/p&gt;&lt;p style=&quot;margin: 0cm 0cm 12pt; line-height: 0%; font-size: 11pt; font-family: Arial, sans-serif; text-align: start;&quot; class=&quot;MsoNormal&quot;&gt;позволяет масштабировать и конфигурировать&amp;nbsp;&lt;/p&gt;&lt;p style=&quot;margin: 0cm 0cm 12pt; line-height: 0%; font-size: 11pt; font-family: Arial, sans-serif; text-align: start;&quot; class=&quot;MsoNormal&quot;&gt;оба уровня отдельно друг от друга.&amp;nbsp;&lt;/p&gt;&lt;p style=&quot;margin: 0cm 0cm 12pt; line-height: 90%; font-size: 11pt; font-family: Arial, sans-serif; text-align: start;&quot; class=&quot;MsoNormal&quot;&gt;Добавление нового &lt;span style=&quot;font-size: 12pt; line-height: 18.4px; color: rgb(36, 41, 46);&quot; lang=&quot;EN-GB&quot;&gt;API&lt;/span&gt;&lt;span style=&quot;font-size: 12pt; line-height: 18.4px; color: rgb(36, 41, 46);&quot;&gt;, не требует поднятия&amp;nbsp;&lt;/span&gt;&lt;/p&gt;&lt;p style=&quot;margin: 0cm 0cm 12pt; line-height: 90%; font-size: 11pt; font-family: Arial, sans-serif; text-align: start;&quot; class=&quot;MsoNormal&quot;&gt;&lt;span style=&quot;font-size: 12pt; line-height: 18.4px; color: rgb(36, 41, 46);&quot;&gt;еще одного веб сервера.&lt;/span&gt;&lt;/p&gt;&lt;p style=&quot;margin: 0cm 0cm 12pt; line-height: 90%; font-size: 11pt; font-family: Arial, sans-serif; text-align: start;&quot; class=&quot;MsoNormal&quot;&gt;&lt;span style=&quot;font-size: 12pt; line-height: 18.4px; color: rgb(36, 41, 46);&quot;&gt;Принцип единой ответственности позволяет&amp;nbsp;&lt;/span&gt;&lt;/p&gt;&lt;p style=&quot;margin: 0cm 0cm 12pt; line-height: 90%; font-size: 11pt; font-family: Arial, sans-serif; text-align: start;&quot; class=&quot;MsoNormal&quot;&gt;&lt;span style=&quot;font-size: 12pt; line-height: 18.4px; color: rgb(36, 41, 46);&quot;&gt;писать маленькие автономные сервисы&amp;nbsp;&lt;/span&gt;&lt;/p&gt;&lt;p style=&quot;margin: 0cm 0cm 12pt; line-height: 90%; font-size: 11pt; font-family: Arial, sans-serif; text-align: start;&quot; class=&quot;MsoNormal&quot;&gt;&lt;span style=&quot;font-size: 12pt; line-height: 18.4px; color: rgb(36, 41, 46);&quot;&gt;быстро и независимо друг от друга.&lt;/span&gt;&lt;/p&gt;" style="text;html=1;align=center;verticalAlign=middle;resizable=0;points=[];autosize=1;strokeColor=none;fillColor=none;fontSize=14;" vertex="1" parent="COP01vaBlytFx2KbF6yr-69">
          <mxGeometry y="55" width="360" height="230" as="geometry" />
        </mxCell>
        <mxCell id="COP01vaBlytFx2KbF6yr-72" value="&lt;b style=&quot;font-size: medium; text-align: start;&quot;&gt;Масштабирование БД&lt;/b&gt;&lt;span style=&quot;font-size: medium; font-weight: 400; text-align: start;&quot;&gt;&lt;/span&gt;" style="swimlane;whiteSpace=wrap;html=1;fontSize=14;" vertex="1" parent="1">
          <mxGeometry x="-120" y="549.25" width="390" height="301.5" as="geometry" />
        </mxCell>
        <mxCell id="COP01vaBlytFx2KbF6yr-73" value="&lt;p style=&quot;margin: 0cm 0cm 12pt; line-height: 0%; font-size: 11pt; font-family: Arial, sans-serif; text-align: start;&quot; class=&quot;MsoNormal&quot;&gt;Разделение веб уровня и приложения&amp;nbsp;&lt;/p&gt;&lt;p style=&quot;margin: 0cm 0cm 12pt; line-height: 0%; font-size: 11pt; font-family: Arial, sans-serif; text-align: start;&quot; class=&quot;MsoNormal&quot;&gt;позволяет масштабировать и конфигурировать&amp;nbsp;&lt;/p&gt;&lt;p style=&quot;margin: 0cm 0cm 12pt; line-height: 0%; font-size: 11pt; font-family: Arial, sans-serif; text-align: start;&quot; class=&quot;MsoNormal&quot;&gt;оба уровня отдельно друг от друга.&amp;nbsp;&lt;/p&gt;&lt;p style=&quot;margin: 0cm 0cm 12pt; line-height: 90%; font-size: 11pt; font-family: Arial, sans-serif; text-align: start;&quot; class=&quot;MsoNormal&quot;&gt;Добавление нового &lt;span style=&quot;font-size: 12pt; line-height: 18.4px; color: rgb(36, 41, 46);&quot; lang=&quot;EN-GB&quot;&gt;API&lt;/span&gt;&lt;span style=&quot;font-size: 12pt; line-height: 18.4px; color: rgb(36, 41, 46);&quot;&gt;, не требует поднятия&amp;nbsp;&lt;/span&gt;&lt;/p&gt;&lt;p style=&quot;margin: 0cm 0cm 12pt; line-height: 90%; font-size: 11pt; font-family: Arial, sans-serif; text-align: start;&quot; class=&quot;MsoNormal&quot;&gt;&lt;span style=&quot;font-size: 12pt; line-height: 18.4px; color: rgb(36, 41, 46);&quot;&gt;еще одного веб сервера.&lt;/span&gt;&lt;/p&gt;&lt;p style=&quot;margin: 0cm 0cm 12pt; line-height: 90%; font-size: 11pt; font-family: Arial, sans-serif; text-align: start;&quot; class=&quot;MsoNormal&quot;&gt;&lt;span style=&quot;font-size: 12pt; line-height: 18.4px; color: rgb(36, 41, 46);&quot;&gt;Принцип единой ответственности позволяет&amp;nbsp;&lt;/span&gt;&lt;/p&gt;&lt;p style=&quot;margin: 0cm 0cm 12pt; line-height: 90%; font-size: 11pt; font-family: Arial, sans-serif; text-align: start;&quot; class=&quot;MsoNormal&quot;&gt;&lt;span style=&quot;font-size: 12pt; line-height: 18.4px; color: rgb(36, 41, 46);&quot;&gt;писать маленькие автономные сервисы&amp;nbsp;&lt;/span&gt;&lt;/p&gt;&lt;p style=&quot;margin: 0cm 0cm 12pt; line-height: 90%; font-size: 11pt; font-family: Arial, sans-serif; text-align: start;&quot; class=&quot;MsoNormal&quot;&gt;&lt;span style=&quot;font-size: 12pt; line-height: 18.4px; color: rgb(36, 41, 46);&quot;&gt;быстро и независимо друг от друга.&lt;/span&gt;&lt;/p&gt;" style="text;html=1;align=center;verticalAlign=middle;resizable=0;points=[];autosize=1;strokeColor=none;fillColor=none;fontSize=14;" vertex="1" parent="COP01vaBlytFx2KbF6yr-72">
          <mxGeometry y="55" width="360" height="230" as="geometry" />
        </mxCell>
        <mxCell id="COP01vaBlytFx2KbF6yr-76" value="NonSQL" style="shape=table;startSize=30;container=1;collapsible=0;childLayout=tableLayout;fixedRows=1;rowLines=0;fontStyle=0;strokeColor=default;fontSize=16;" vertex="1" parent="1">
          <mxGeometry x="50" y="860" width="470" height="240" as="geometry" />
        </mxCell>
        <mxCell id="COP01vaBlytFx2KbF6yr-77" value="" style="shape=tableRow;horizontal=0;startSize=0;swimlaneHead=0;swimlaneBody=0;top=0;left=0;bottom=0;right=0;collapsible=0;dropTarget=0;fillColor=none;points=[[0,0.5],[1,0.5]];portConstraint=eastwest;strokeColor=inherit;fontSize=16;" vertex="1" parent="COP01vaBlytFx2KbF6yr-76">
          <mxGeometry y="30" width="470" height="30" as="geometry" />
        </mxCell>
        <mxCell id="COP01vaBlytFx2KbF6yr-78" value="&lt;b style=&quot;font-size: medium; text-align: start;&quot;&gt;Key&lt;span style=&quot;font-size: 11pt; line-height: 16.8667px; font-family: Arial, sans-serif; color: rgb(36, 41, 46); background: white;&quot;&gt;-&lt;/span&gt;&lt;span style=&quot;font-size: 11pt; line-height: 16.8667px; font-family: Arial, sans-serif; color: rgb(36, 41, 46); background: white;&quot; lang=&quot;EN-GB&quot;&gt;value&lt;/span&gt;&lt;span style=&quot;font-size: 11pt; line-height: 16.8667px; font-family: Arial, sans-serif; color: rgb(36, 41, 46); background: white;&quot; lang=&quot;EN-GB&quot;&gt; &lt;/span&gt;&lt;span style=&quot;font-size: 11pt; line-height: 16.8667px; font-family: Arial, sans-serif; color: rgb(36, 41, 46); background: white;&quot; lang=&quot;EN-GB&quot;&gt;store&lt;/span&gt;&lt;/b&gt;&lt;span style=&quot;font-size: medium; text-align: start;&quot;&gt;&lt;/span&gt;" style="shape=partialRectangle;html=1;whiteSpace=wrap;connectable=0;fillColor=none;top=0;left=0;bottom=0;right=0;overflow=hidden;pointerEvents=1;strokeColor=inherit;fontSize=16;" vertex="1" parent="COP01vaBlytFx2KbF6yr-77">
          <mxGeometry width="140" height="30" as="geometry">
            <mxRectangle width="140" height="30" as="alternateBounds" />
          </mxGeometry>
        </mxCell>
        <mxCell id="COP01vaBlytFx2KbF6yr-79" value="Redis, Memcached" style="shape=partialRectangle;html=1;whiteSpace=wrap;connectable=0;fillColor=none;top=0;left=0;bottom=0;right=0;align=left;spacingLeft=6;overflow=hidden;strokeColor=inherit;fontSize=16;" vertex="1" parent="COP01vaBlytFx2KbF6yr-77">
          <mxGeometry x="140" width="330" height="30" as="geometry">
            <mxRectangle width="330" height="30" as="alternateBounds" />
          </mxGeometry>
        </mxCell>
        <mxCell id="COP01vaBlytFx2KbF6yr-80" value="" style="shape=tableRow;horizontal=0;startSize=0;swimlaneHead=0;swimlaneBody=0;top=0;left=0;bottom=0;right=0;collapsible=0;dropTarget=0;fillColor=none;points=[[0,0.5],[1,0.5]];portConstraint=eastwest;strokeColor=inherit;fontSize=16;" vertex="1" parent="COP01vaBlytFx2KbF6yr-76">
          <mxGeometry y="60" width="470" height="30" as="geometry" />
        </mxCell>
        <mxCell id="COP01vaBlytFx2KbF6yr-81" value="&lt;b style=&quot;font-size: medium; text-align: start;&quot;&gt;Файловая/документная база данных&lt;/b&gt;&lt;span style=&quot;font-size: medium; text-align: start;&quot;&gt;&lt;/span&gt;" style="shape=partialRectangle;html=1;whiteSpace=wrap;connectable=0;fillColor=none;top=0;left=0;bottom=0;right=0;overflow=hidden;strokeColor=inherit;fontSize=16;" vertex="1" parent="COP01vaBlytFx2KbF6yr-80">
          <mxGeometry width="140" height="30" as="geometry">
            <mxRectangle width="140" height="30" as="alternateBounds" />
          </mxGeometry>
        </mxCell>
        <mxCell id="COP01vaBlytFx2KbF6yr-82" value="Value 2" style="shape=partialRectangle;html=1;whiteSpace=wrap;connectable=0;fillColor=none;top=0;left=0;bottom=0;right=0;align=left;spacingLeft=6;overflow=hidden;strokeColor=inherit;fontSize=16;" vertex="1" parent="COP01vaBlytFx2KbF6yr-80">
          <mxGeometry x="140" width="330" height="30" as="geometry">
            <mxRectangle width="330" height="30" as="alternateBounds" />
          </mxGeometry>
        </mxCell>
        <mxCell id="COP01vaBlytFx2KbF6yr-83" value="" style="shape=tableRow;horizontal=0;startSize=0;swimlaneHead=0;swimlaneBody=0;top=0;left=0;bottom=0;right=0;collapsible=0;dropTarget=0;fillColor=none;points=[[0,0.5],[1,0.5]];portConstraint=eastwest;strokeColor=inherit;fontSize=16;" vertex="1" parent="COP01vaBlytFx2KbF6yr-76">
          <mxGeometry y="90" width="470" height="30" as="geometry" />
        </mxCell>
        <mxCell id="COP01vaBlytFx2KbF6yr-84" value="3" style="shape=partialRectangle;html=1;whiteSpace=wrap;connectable=0;fillColor=none;top=0;left=0;bottom=0;right=0;overflow=hidden;strokeColor=inherit;fontSize=16;" vertex="1" parent="COP01vaBlytFx2KbF6yr-83">
          <mxGeometry width="140" height="30" as="geometry">
            <mxRectangle width="140" height="30" as="alternateBounds" />
          </mxGeometry>
        </mxCell>
        <mxCell id="COP01vaBlytFx2KbF6yr-85" value="Value 3" style="shape=partialRectangle;html=1;whiteSpace=wrap;connectable=0;fillColor=none;top=0;left=0;bottom=0;right=0;align=left;spacingLeft=6;overflow=hidden;strokeColor=inherit;fontSize=16;" vertex="1" parent="COP01vaBlytFx2KbF6yr-83">
          <mxGeometry x="140" width="330" height="30" as="geometry">
            <mxRectangle width="330" height="30" as="alternateBounds" />
          </mxGeometry>
        </mxCell>
      </root>
    </mxGraphModel>
  </diagram>
</mxfile>
